HIERARCHY
ROOT hip
{
	OFFSET 0.000000 0.000000 0.000000 
	CHANNELS 6 Xposition Yposition Zposition Xrotation Zrotation Yrotation
	JOINT abdomen
	{
		OFFSET 0.000000 3.402643 0.000000 
		CHANNELS 3 Xrotation Zrotation Yrotation
		JOINT chest
		{
			OFFSET 0.000000 8.438565 -0.680529 
			CHANNELS 3 Xrotation Zrotation Yrotation
			JOINT neck
			{
				OFFSET 0.000000 10.207942 -0.272212 
				CHANNELS 3 Xrotation Zrotation Yrotation
				JOINT head
				{
					OFFSET 0.000000 3.130431 0.000000 
					CHANNELS 3 Xrotation Zrotation Yrotation
					End Site
					{
						OFFSET 0.000000 3.130435 0.000000 
					}
				}
			}
			JOINT lCollar
			{
				OFFSET 3.470700 6.669187 -0.816635 
				CHANNELS 3 Yrotation Zrotation Xrotation
				JOINT lShldr
				{
					OFFSET 3.198488 0.000000 0.000000 
					CHANNELS 3 Zrotation Yrotation Xrotation
					JOINT lForeArm
					{
						OFFSET 10.139888 0.000000 0.000000 
						CHANNELS 3 Yrotation Zrotation Xrotation
						JOINT lHand
						{
							OFFSET 8.370511 0.000000 0.000000 
							CHANNELS 3 Zrotation Yrotation Xrotation
							End Site
							{
								OFFSET 4.083176 0.000000 0.000000 
							}
						}
					}
				}
			}
			JOINT rCollar
			{
				OFFSET -3.470700 6.669187 -0.816635 
				CHANNELS 3 Yrotation Zrotation Xrotation
				JOINT rShldr
				{
					OFFSET -3.198488 0.000000 0.000000 
					CHANNELS 3 Zrotation Yrotation Xrotation
					JOINT rForeArm
					{
						OFFSET -10.139888 0.000000 0.000000 
						CHANNELS 3 Yrotation Zrotation Xrotation
						JOINT rHand
						{
							OFFSET -8.370511 0.000000 0.000000 
							CHANNELS 3 Zrotation Yrotation Xrotation
							End Site
							{
								OFFSET -4.083176 0.000000 0.000000 
							}
						}
					}
				}
			}
		}
	}
	JOINT lThigh
	{
		OFFSET 5.308129 -1.633274 1.361059 
		CHANNELS 3 Xrotation Zrotation Yrotation
		JOINT lShin
		{
			OFFSET -2.041588 -20.007561 0.000000 
			CHANNELS 3 Xrotation Zrotation Yrotation
			JOINT lFoot
			{
				OFFSET 0.000000 -19.190928 -1.224953 
				CHANNELS 3 Xrotation Yrotation Zrotation
				End Site
				{
					OFFSET 0.000000 -2.449906 4.627600 
				}
			}
		}
	}
	JOINT rThigh
	{
		OFFSET -5.308129 -1.633274 1.361059 
		CHANNELS 3 Xrotation Zrotation Yrotation
		JOINT rShin
		{
			OFFSET 2.041588 -20.007561 0.000000 
			CHANNELS 3 Xrotation Zrotation Yrotation
			JOINT rFoot
			{
				OFFSET 0.000000 -19.190928 -1.224953 
				CHANNELS 3 Xrotation Yrotation Zrotation
				End Site
				{
					OFFSET 0.000000 -2.449906 4.627600 
				}
			}
		}
	}
}
MOTION
Frames: 19
Frame Time: 0.033333
-0.122184 33.737442 0.286645 -8.084311 -12.205434 87.489845 0.000000 0.000000 0.000000 8.050282 9.487396 8.475213 -5.830842 -0.947770 -0.069914 -11.760063 9.074132 15.566180 4.172400 3.886457 24.228743 -63.619133 -15.431819 -14.755059 -47.090050 -20.442856 80.004265 -15.837252 -0.840668 -58.198620 0.451563 -20.205835 24.581507 80.197914 30.666174 71.779900 7.770381 -31.086466 10.063810 33.690987 -2.981560 -80.791008 -60.505020 26.706554 16.273766 133.768265 17.171085 1.485670 3.668475 2.697863 10.769730 -34.024944 7.418729 4.730305 67.606415 1.224358 5.561984 14.104506 -12.287955 3.682873 
-0.088949 32.872063 0.375735 -8.571977 -10.837549 86.280235 0.000000 0.000000 0.000000 9.893494 9.854225 8.498341 -6.438060 -1.638216 -0.129497 -12.520765 8.014909 15.871724 6.204435 4.399163 23.966980 -65.690399 -15.219989 -13.780481 -45.399887 -20.075153 82.669357 -13.441812 -1.844477 -58.070965 1.830675 -20.665377 25.000000 80.742867 32.552219 71.642860 7.197068 -30.711130 9.580133 34.216312 -3.120036 -80.864273 -60.511726 27.377718 16.532631 138.031036 19.692499 2.271188 -0.199694 4.473698 9.523145 -35.884140 7.957804 4.976041 73.364304 2.649655 6.379965 8.562741 -14.281194 -1.649294 
-0.083852 32.941185 0.330008 -7.998018 -11.656260 86.038155 0.000000 0.000000 0.000000 8.684005 9.085873 8.345722 -6.655421 -2.275853 -0.167062 -11.886628 7.387947 15.237490 7.324212 6.605001 23.566120 -70.230537 -15.005633 -11.575177 -43.731125 -18.373234 85.898590 -12.248680 -2.515006 -57.961216 1.267487 -21.440762 24.873680 81.798965 32.801643 72.174164 9.063563 -31.899319 14.204780 34.207798 -3.198296 -80.786957 -60.708183 27.202902 16.399738 137.193283 20.353142 2.393196 -0.529232 4.245799 9.814144 -36.938328 7.342146 4.833965 73.432892 2.688805 6.395000 9.026544 -13.911981 -2.311211 
-0.110543 33.987560 0.117840 -7.134219 -14.549553 87.326973 0.000000 0.000000 0.000000 4.665546 8.078966 8.225811 -6.375978 -3.073974 -0.226631 -10.694151 7.175356 13.071985 6.729242 7.712297 23.521362 -73.131386 -14.310329 -10.168731 -44.217499 -17.044792 89.536186 -12.487188 -3.522798 -57.591843 -1.637868 -22.267164 23.702427 82.192223 31.333185 72.728752 13.052641 -33.045624 18.272785 35.129726 -4.034869 -80.847794 -61.839127 25.902967 15.594663 131.097519 19.340788 1.860020 1.208900 2.733964 13.727772 -36.995110 6.101153 4.487917 67.765106 1.595712 5.657341 15.587474 -11.562779 1.858380 
-0.133881 35.756569 -0.175714 -5.943509 -17.917213 88.932198 0.000000 0.000000 0.000000 0.167062 6.415988 7.929799 -6.157034 -4.011313 -0.294123 -9.365776 7.901128 10.396548 5.986567 10.657538 23.338045 -77.953148 -13.691054 -7.765517 -43.900345 -14.801732 91.645737 -11.458572 -4.590651 -57.431263 -5.339061 -22.804007 22.153133 82.392624 29.541271 73.262749 17.699030 -34.602921 25.021408 36.461807 -3.783727 -80.890007 -61.727036 23.983503 14.947874 120.758797 16.968861 0.941064 5.885936 -0.164576 16.155872 -36.382553 4.081234 3.836947 59.496330 0.133476 4.590134 26.174774 -7.451048 7.367358 
-0.124676 37.823036 -0.609465 -4.929884 -20.428492 90.745102 0.000000 0.000000 0.000000 -3.252954 4.660481 7.557759 -5.939699 -5.009094 -0.372173 -8.216938 9.121115 7.471837 4.523282 12.189054 23.542717 -80.830383 -13.196457 -6.309303 -43.816391 -12.970301 93.166145 -11.108334 -5.161071 -57.320076 -8.785748 -22.804676 20.729944 81.859802 27.597918 73.427490 22.403147 -36.730122 33.234131 38.308266 -2.485519 -80.916298 -59.275932 21.044043 14.629557 108.062065 13.687717 -0.093744 9.814695 -1.091384 17.178913 -35.268093 0.946491 2.864554 51.351112 -0.189129 3.707197 38.148106 -5.387308 9.635966 
-0.140316 39.690796 -1.206394 -4.366599 -21.836967 92.436989 0.000000 0.000000 0.000000 -5.126837 3.511322 7.312709 -5.775030 -6.244648 -0.458192 -7.874536 10.000778 4.686935 2.476252 12.333568 24.047260 -82.227493 -13.109127 -5.599432 -43.366673 -11.454308 92.713074 -11.038415 -5.187160 -57.344471 -11.291077 -21.752483 19.906658 79.883514 26.200794 72.646980 26.080070 -38.708462 40.697018 39.900410 0.192715 -80.758995 -54.884033 17.513905 14.643245 94.070877 10.409380 -0.937744 12.206018 0.193767 17.687473 -35.798656 -3.642376 1.501788 48.320583 2.414495 3.987094 46.739471 -9.448730 3.916789 
-0.173237 40.981113 -1.880114 -3.707043 -21.970051 93.466431 0.000000 0.000000 0.000000 -5.366366 2.479333 7.081848 -5.610595 -7.351601 -0.544423 -8.326607 10.633509 2.782369 1.284146 12.201432 24.348482 -83.060944 -13.619900 -5.163153 -42.664570 -10.708688 92.199272 -11.282592 -4.367482 -57.512104 -12.081813 -20.336136 19.915224 77.368843 25.132673 71.482666 28.209345 -40.492702 44.227901 40.361488 1.259992 -80.631248 -48.862854 13.942919 15.006395 79.653786 7.862824 -1.388317 14.555992 1.444659 18.080204 -38.433868 -8.280631 0.264491 53.506279 4.628441 4.962744 50.218563 -13.930164 -0.320065 
-0.198965 41.367630 -2.452996 -3.689618 -20.439583 93.631020 0.000000 0.000000 0.000000 -3.449796 2.193288 6.996818 -5.983572 -8.001717 -0.587134 -9.063891 11.292372 1.978233 0.546658 11.366862 24.548338 -82.244888 -14.048695 -5.571646 -42.840645 -11.100815 90.568039 -11.678967 -2.567359 -57.914513 -11.713444 -19.681059 20.200127 74.769470 24.470133 70.171509 30.623911 -40.987633 43.190346 40.484776 0.127859 -80.797218 -41.853565 11.883749 15.964782 67.444824 6.185485 -1.475780 15.485441 4.312025 22.524382 -42.194778 -10.868992 -0.312968 65.627838 4.413842 6.035321 50.536110 -14.423686 2.656871 
-0.309254 40.751530 -2.855240 -5.100752 -18.242846 93.748047 0.000000 0.000000 0.000000 -0.488999 3.105356 7.161048 -6.875926 -7.707517 -0.567787 -10.082841 11.599990 1.442416 0.694397 12.486243 24.494780 -82.954178 -15.413778 -5.172443 -42.551411 -11.701507 89.208122 -12.244946 -0.432645 -58.405247 -11.791613 -19.456656 20.224392 72.866920 24.415733 69.109100 33.328503 -41.470074 44.855186 40.435070 0.313130 -80.723221 -36.396416 11.982520 17.098331 60.040936 5.928095 -1.289609 15.871917 4.364034 25.824003 -46.740940 -11.629461 -0.286837 80.567039 3.369315 7.112473 49.762772 -12.863631 4.853178 
-0.440211 39.259003 -3.290324 -5.961339 -15.204391 94.350784 0.000000 0.000000 0.000000 3.620000 3.489136 7.154382 -8.111159 -6.792458 -0.504480 -11.331504 11.320324 0.528076 0.489531 14.541302 24.511398 -83.920280 -17.358992 -4.629627 -42.196278 -12.809751 87.388107 -12.120720 1.557433 -58.939075 -12.551658 -19.405680 19.965149 71.821434 24.870794 68.413246 33.379929 -41.566303 45.026012 40.081024 2.479052 -80.420219 -32.320774 11.667284 17.763456 58.724915 7.241995 -0.941767 13.279184 0.802455 23.301918 -50.601765 -13.573616 -0.666117 96.776711 0.644432 7.648749 45.090633 -10.368646 2.788567 
-0.682126 37.109322 -3.643466 -6.728555 -12.727137 95.072845 0.000000 0.000000 0.000000 7.290833 3.719765 7.096922 -9.407668 -5.562491 -0.406372 -12.761946 10.695751 -0.313254 0.272567 16.885279 24.547005 -84.197075 -19.485098 -4.450981 -42.083374 -14.116175 82.955101 -13.373980 2.840694 -59.410694 -13.036685 -20.035110 19.630615 72.359909 25.341335 68.615906 30.383587 -41.123405 40.987457 38.633034 3.962802 -80.151581 -32.020782 12.255347 18.008018 64.123062 9.670982 -0.603695 6.320139 -5.128393 17.165709 -55.406410 -15.380237 -0.947801 112.877983 -3.603133 7.546877 38.104046 -7.340311 2.782540 
-0.935182 35.074039 -3.905064 -6.902629 -10.472127 95.858643 0.000000 0.000000 0.000000 10.453906 2.996394 6.812618 -9.977801 -3.405461 -0.254138 -14.779336 9.589729 -1.091990 0.154285 19.537519 24.554657 -86.236916 -22.648542 -3.362966 -40.124851 -11.667705 78.313499 -14.709837 2.734336 -59.614326 -12.943348 -19.388615 19.817713 71.405075 25.743324 67.978333 27.700100 -39.704212 37.194035 36.247906 5.345260 -79.835693 -33.841114 12.846186 17.883429 73.051270 12.394434 -0.272662 -0.934282 -8.607705 9.697042 -59.157326 -16.844917 -1.211292 126.117081 -8.414593 6.863668 31.296942 -4.568901 5.703706 
-1.095965 33.923504 -4.043548 -6.685707 -9.079505 96.459175 0.000000 0.000000 0.000000 12.045924 1.623620 6.420777 -9.492231 -0.180679 -0.019290 -19.369156 4.452878 -3.210502 -0.758845 19.453524 24.899874 -86.469933 -25.486755 -3.185004 -38.034184 -6.385444 74.953148 -12.591527 2.073841 -59.727634 -12.854698 -17.683441 20.269157 70.648430 26.498707 67.392136 23.177303 -37.198288 32.071106 34.686794 7.532398 -79.586937 -34.828953 12.896622 17.700882 78.646843 14.395365 0.078878 -7.366078 -7.874669 5.898767 -60.305031 -17.429688 -1.300245 133.416550 -11.610902 6.278133 26.463587 -3.004998 8.776696 
-1.122429 32.778229 -4.173400 -5.111111 -8.209863 96.336708 0.000000 0.000000 0.000000 12.464990 -1.449401 5.714654 -8.162781 3.915093 0.287829 -18.323282 -0.818462 -4.545290 -0.967971 19.792559 24.978443 -86.272873 -27.520962 -3.227030 -38.598621 -0.814997 73.493881 -15.056501 -2.020627 -58.713585 -12.956816 -15.396486 20.793987 69.392250 27.225155 66.520782 20.375107 -34.739594 29.947672 32.974125 10.485261 -79.117958 -35.640560 12.575340 17.446863 83.923180 14.561106 0.042988 -13.827650 -6.539188 6.263591 -62.022839 -17.722321 -1.301596 139.955338 -15.017284 5.540826 23.781742 -3.711911 12.737932 
-1.030819 33.482380 -3.861792 -6.945987 -9.724410 96.949898 0.000000 0.000000 0.000000 10.468775 0.124840 6.155900 -7.650601 4.603749 0.338190 -17.184780 -1.292629 -4.883494 -1.418285 21.545319 25.000000 -86.670502 -27.355207 -3.038291 -40.012764 -3.588083 72.335411 -15.807390 -0.614663 -59.129124 -13.715100 -15.411077 20.571075 71.660583 24.237339 68.466103 20.286692 -34.889629 26.886841 33.706276 6.678051 -79.765762 -35.618626 13.705894 17.809687 79.893990 15.800547 0.360734 -11.106452 -8.398528 4.717354 -62.739944 -17.362148 -1.151383 133.953217 -11.767053 6.225174 24.848694 -5.680561 11.150400 
-0.958625 35.082077 -3.554598 -8.077313 -12.621780 97.742775 0.000000 0.000000 0.000000 6.944568 1.066340 6.497222 -7.557443 5.052089 0.365508 -14.871361 -1.460111 -4.239234 -3.044643 21.776087 25.000000 -85.445030 -26.559853 -3.664400 -43.125832 -7.404863 72.973267 -17.560629 1.104680 -59.529354 -15.051432 -15.951492 20.019009 73.742355 19.963413 70.590866 22.221846 -35.871761 24.096107 33.653992 3.747199 -80.199501 -34.224728 12.672998 17.749716 70.491165 16.769266 0.783841 -2.888922 -11.168029 0.838783 -61.881897 -17.626331 -1.284827 122.206978 -6.552811 7.191854 26.923159 -8.163494 5.835275 
-0.924676 37.185505 -3.191701 -9.055218 -16.231909 98.311790 0.000000 0.000000 0.000000 2.530931 2.058538 6.858841 -7.385723 4.561876 0.325088 -13.219098 1.332713 -2.066653 -4.110165 21.300224 25.000000 -85.357170 -26.115311 -3.720464 -45.273365 -9.695609 76.382576 -19.035727 1.000738 -59.288910 -16.378254 -17.171391 19.232275 76.298332 16.315037 72.883415 23.165247 -35.822021 20.646002 32.834488 1.272674 -80.445671 -32.766991 11.323267 17.568489 58.861778 16.897917 1.209387 9.469229 -12.268636 0.107156 -59.400196 -16.825178 -1.177652 106.708450 0.136760 8.085549 30.273411 -11.443233 1.492244 
-0.953352 39.324123 -2.881487 -8.724154 -20.386784 99.269638 0.000000 0.000000 0.000000 -2.413400 1.873338 6.913290 -6.830225 3.723441 0.272216 -11.572106 3.483813 -0.409385 -4.452259 21.289749 25.000000 -87.308594 -25.998592 -2.763220 -45.288227 -10.433822 80.224640 -17.549561 -1.220818 -58.459110 -16.646702 -16.065647 19.485954 75.658218 13.762255 73.092804 23.954004 -35.694790 16.944530 32.384830 -1.997252 -80.644997 -33.316528 8.503831 16.586714 49.819294 16.930132 1.617648 21.963898 -12.531548 -0.320717 -56.510193 -16.317703 -1.183278 89.529724 4.746325 8.104334 34.077782 -13.732854 1.834692 
